<svg width="88" height="88" viewBox="0 0 88 88" fill="none" xmlns="http://www.w3.org/2000/svg">
<g filter="url(#filter0_d_139_12601)">
<path d="M43.7388 63.0856C28.5268 63.0856 16.2344 50.7932 16.2344 35.5812C16.2344 20.3693 28.6037 8 43.8156 8C58.9507 8 71.32 20.3693 71.32 35.5812C71.32 50.7932 58.9507 63.0856 43.7388 63.0856Z" fill="url(#paint0_radial_139_12601)"/>
<path d="M43.7406 23.212C47.8124 23.212 48.2734 23.212 49.81 23.2888C51.2697 23.3656 52.1148 23.5961 52.6526 23.8266C53.3441 24.1339 53.8819 24.4412 54.4196 24.979C54.9574 25.5168 55.2648 25.9778 55.5721 26.7461C55.8026 27.2839 56.033 28.0521 56.1099 29.5887C56.1867 31.2021 56.1867 31.663 56.1867 35.6581C56.1867 39.73 56.1867 40.1909 56.1099 41.7275C56.033 43.1872 55.8026 44.0323 55.5721 44.5701C55.2648 45.2616 54.9574 45.7994 54.4196 46.3372C53.8819 46.875 53.4209 47.1823 52.6526 47.4896C52.1148 47.7201 51.3465 47.9506 49.81 48.0274C48.1966 48.1042 47.7356 48.1042 43.7406 48.1042C39.6687 48.1042 39.2077 48.1042 37.6712 48.0274C36.2114 47.9506 35.3663 47.7201 34.8285 47.4896C34.1371 47.1823 33.5993 46.875 33.0615 46.3372C32.5237 45.7994 32.2164 45.3384 31.9091 44.5701C31.6786 44.0323 31.4481 43.2641 31.3713 41.7275C31.2944 40.1141 31.2944 39.6531 31.2944 35.6581C31.2944 31.5862 31.2944 31.1252 31.3713 29.5887C31.4481 28.129 31.6786 27.2839 31.9091 26.7461C32.2164 26.0546 32.5237 25.5168 33.0615 24.979C33.5993 24.4412 34.0603 24.1339 34.8285 23.8266C35.3663 23.5961 36.1346 23.3656 37.6712 23.2888C39.2845 23.212 39.7455 23.212 43.7406 23.212ZM43.7406 20.4462C39.6687 20.4462 39.1309 20.4462 37.5175 20.523C35.9041 20.5998 34.8285 20.8303 33.8298 21.2144C32.831 21.5986 31.9859 22.1364 31.1408 22.9815C30.2957 23.8266 29.7579 24.6717 29.3737 25.6705C28.9896 26.6692 28.7591 27.7448 28.6823 29.3582C28.6055 30.9716 28.6055 31.5094 28.6055 35.5813C28.6055 39.6531 28.6055 40.1909 28.6823 41.8043C28.7591 43.4177 28.9896 44.4933 29.3737 45.4921C29.7579 46.4908 30.2957 47.3359 31.1408 48.181C31.9859 49.0262 32.831 49.5639 33.8298 49.9481C34.8285 50.3322 35.9041 50.5627 37.5175 50.6395C39.1309 50.7164 39.6687 50.7164 43.7406 50.7164C47.8124 50.7164 48.3502 50.7164 49.9636 50.6395C51.577 50.5627 52.6526 50.3322 53.6514 49.9481C54.6501 49.5639 55.4952 49.0262 56.3403 48.181C57.1855 47.3359 57.7233 46.4908 58.1074 45.4921C58.4915 44.4933 58.722 43.4177 58.7988 41.8043C58.8757 40.1909 58.8757 39.6531 58.8757 35.5813C58.8757 31.5094 58.8757 30.9716 58.7988 29.3582C58.722 27.7448 58.4915 26.6692 58.1074 25.6705C57.7233 24.6717 57.1855 23.8266 56.3403 22.9815C55.4952 22.1364 54.6501 21.5986 53.6514 21.2144C52.6526 20.8303 51.577 20.5998 49.9636 20.523C48.4271 20.4462 47.8893 20.4462 43.7406 20.4462Z" fill="white"/>
<path d="M43.7401 27.8217C39.4377 27.8217 35.9805 31.2789 35.9805 35.5813C35.9805 39.8836 39.4377 43.3409 43.7401 43.3409C48.0425 43.3409 51.4997 39.8836 51.4997 35.5813C51.4997 31.2789 48.0425 27.8217 43.7401 27.8217ZM43.7401 40.5751C40.9743 40.5751 38.6694 38.3471 38.6694 35.5044C38.6694 32.7386 40.8975 30.4338 43.7401 30.4338C46.5059 30.4338 48.8107 32.6618 48.8107 35.5044C48.8107 38.3471 46.5827 40.5751 43.7401 40.5751Z" fill="white"/>
<path d="M53.6526 27.5143C53.6526 28.513 52.8075 29.3581 51.8087 29.3581C50.81 29.3581 49.9648 28.513 49.9648 27.5143C49.9648 26.5155 50.81 25.6704 51.8087 25.6704C52.8075 25.6704 53.6526 26.5155 53.6526 27.5143Z" fill="white"/>
</g>
<defs>
<filter id="filter0_d_139_12601" x="0.234375" y="0" width="87.0859" height="87.0856" filterUnits="userSpaceOnUse" color-interpolation-filters="sRGB">
<feFlood flood-opacity="0" result="BackgroundImageFix"/>
<feColorMatrix in="SourceAlpha" type="matrix" values="0 0 0 0 0 0 0 0 0 0 0 0 0 0 0 0 0 0 127 0" result="hardAlpha"/>
<feOffset dy="8"/>
<feGaussianBlur stdDeviation="8"/>
<feComposite in2="hardAlpha" operator="out"/>
<feColorMatrix type="matrix" values="0 0 0 0 0.788235 0 0 0 0 0.262745 0 0 0 0 0.47451 0 0 0 0.25 0"/>
<feBlend mode="normal" in2="BackgroundImageFix" result="effect1_dropShadow_139_12601"/>
<feBlend mode="normal" in="SourceGraphic" in2="effect1_dropShadow_139_12601" result="shape"/>
</filter>
<radialGradient id="paint0_radial_139_12601" cx="0" cy="0" r="1" gradientUnits="userSpaceOnUse" gradientTransform="translate(14.8386 63.3001) scale(101.886 101.886)">
<stop stop-color="#F4EC55"/>
<stop offset="0.2412" stop-color="#E48242"/>
<stop offset="0.3463" stop-color="#D66863"/>
<stop offset="0.4422" stop-color="#CD4F74"/>
<stop offset="0.4888" stop-color="#C94379"/>
<stop offset="1" stop-color="#3F56A6"/>
</radialGradient>
</defs>
</svg>
