<svg width="22" height="22" viewBox="0 0 22 22" fill="none" xmlns="http://www.w3.org/2000/svg">
<path d="M11 11.9167C12.5188 11.9167 13.75 10.6855 13.75 9.16667C13.75 7.64789 12.5188 6.41667 11 6.41667C9.48122 6.41667 8.25 7.64789 8.25 9.16667C8.25 10.6855 9.48122 11.9167 11 11.9167Z" stroke="white" stroke-width="2" stroke-linecap="round" stroke-linejoin="round"/>
<path d="M11.0001 1.83334C9.05516 1.83334 7.1899 2.60595 5.81463 3.98122C4.43936 5.35649 3.66675 7.22175 3.66675 9.16667C3.66675 10.901 4.03525 12.0358 5.04175 13.2917L11.0001 20.1667L16.9584 13.2917C17.9649 12.0358 18.3334 10.901 18.3334 9.16667C18.3334 7.22175 17.5608 5.35649 16.1855 3.98122C14.8103 2.60595 12.945 1.83334 11.0001 1.83334V1.83334Z" stroke="white" stroke-width="2" stroke-linecap="round" stroke-linejoin="round"/>
</svg>
