<svg width="22" height="22" viewBox="0 0 22 22" fill="none" xmlns="http://www.w3.org/2000/svg">
<g clip-path="url(#clip0_313_5466)">
<path d="M15.2778 2.44444H6.72222C6.39807 2.44444 6.08719 2.57321 5.85798 2.80242C5.62877 3.03163 5.5 3.34251 5.5 3.66666V18.3333C5.5 18.6575 5.62877 18.9684 5.85798 19.1976C6.08719 19.4268 6.39807 19.5556 6.72222 19.5556H15.2778C15.6019 19.5556 15.9128 19.4268 16.142 19.1976C16.3712 18.9684 16.5 18.6575 16.5 18.3333V3.66666C16.5 3.34251 16.3712 3.03163 16.142 2.80242C15.9128 2.57321 15.6019 2.44444 15.2778 2.44444V2.44444ZM6.72222 3.66666H15.2778V14.6667H6.72222V3.66666ZM6.72222 18.3333V15.8889H15.2778V18.3333H6.72222Z" fill="white"/>
<path d="M10.3889 16.5H11.6111V17.7222H10.3889V16.5Z" fill="white"/>
</g>
<defs>
<clipPath id="clip0_313_5466">
<rect width="22" height="22" fill="white"/>
</clipPath>
</defs>
</svg>
