<svg width="30" height="30" viewBox="0 0 30 30" fill="none" xmlns="http://www.w3.org/2000/svg">
<g clip-path="url(#clip0_298_5491)">
<path d="M14.9999 3.75001C16.761 3.74962 18.4975 4.16267 20.0698 4.9559C21.6421 5.74914 23.0062 6.90041 24.0523 8.31706C25.0984 9.73371 25.7974 11.3762 26.0929 13.1122C26.3884 14.8483 26.2722 16.6295 25.7537 18.3125C26.2238 19.3539 26.3656 20.5137 26.1603 21.6377C25.955 22.7617 25.4123 23.7965 24.6044 24.6045C23.7964 25.4124 22.7616 25.9551 21.6376 26.1604C20.5137 26.3657 19.3538 26.2239 18.3124 25.7538C16.3571 26.3569 14.2744 26.4153 12.2884 25.9228C10.3023 25.4303 8.48826 24.4054 7.04139 22.9585C5.59451 21.5117 4.56965 19.6976 4.07712 17.7116C3.58458 15.7255 3.64303 13.6428 4.24617 11.6875C3.77563 10.6461 3.63347 9.48603 3.8386 8.36179C4.04373 7.23756 4.58642 6.20247 5.39443 5.39432C6.20244 4.58618 7.23744 4.04331 8.36164 3.83799C9.48584 3.63267 10.6459 3.77465 11.6874 4.24501C12.7606 3.91541 13.8772 3.74856 14.9999 3.75001V3.75001Z" stroke="white" stroke-width="2.5" stroke-linecap="round" stroke-linejoin="round"/>
<path d="M10 18.125C10.625 20.625 12.9475 21.25 15 21.25C18.6312 21.25 20 19.7662 20 18.125C20 16.2462 17.5912 15 15 15C12.4088 15 10 13.7538 10 11.875C10 10.2338 11.3688 8.75 15 8.75C17.0525 8.75 19.375 9.375 20 11.875" stroke="white" stroke-width="2.5" stroke-linecap="round" stroke-linejoin="round"/>
</g>
<defs>
<clipPath id="clip0_298_5491">
<rect width="30" height="30" fill="white"/>
</clipPath>
</defs>
</svg>
