<svg width="91" height="91" viewBox="0 0 91 91" fill="none" xmlns="http://www.w3.org/2000/svg">
<g filter="url(#filter0_d_139_12597)">
<circle cx="45.1178" cy="37.1178" r="29.1178" fill="#1DA1F2"/>
</g>
<path d="M61.1323 28.3688C59.9854 28.8672 58.772 29.1955 57.5303 29.3434C58.8352 28.5793 59.8165 27.3654 60.2902 25.9293C59.0565 26.6507 57.709 27.1569 56.3054 27.4262C55.7144 26.8067 55.0036 26.314 54.2162 25.9778C53.4288 25.6417 52.5813 25.4691 51.7251 25.4707C48.2588 25.4707 45.4537 28.2351 45.4537 31.6428C45.4512 32.1168 45.5056 32.5894 45.6155 33.0504C43.1299 32.9339 40.696 32.2998 38.4695 31.1888C36.243 30.0777 34.273 28.5142 32.6854 26.5981C32.1284 27.5371 31.8339 28.6084 31.8325 29.7001C31.8325 31.8402 32.9491 33.732 34.6351 34.8403C33.6362 34.8166 32.6577 34.5522 31.7828 34.0696V34.146C31.7828 37.1397 33.9484 39.6301 36.8147 40.197C36.2757 40.3407 35.7203 40.4135 35.1625 40.4136C34.7667 40.4143 34.3717 40.3759 33.9835 40.2989C34.7803 42.7512 37.0994 44.5347 39.8466 44.5856C37.6143 46.306 34.8737 47.2358 32.0554 47.229C31.5552 47.2282 31.0554 47.1985 30.5586 47.1398C33.4256 48.9705 36.7583 49.9389 40.16 49.9297C51.7118 49.9297 58.0227 40.5219 58.0227 32.3625C58.0227 32.095 58.0157 31.8275 58.0029 31.5663C59.2278 30.695 60.2875 29.6122 61.1323 28.3688Z" fill="white"/>
<defs>
<filter id="filter0_d_139_12597" x="0" y="0" width="90.2344" height="90.2356" filterUnits="userSpaceOnUse" color-interpolation-filters="sRGB">
<feFlood flood-opacity="0" result="BackgroundImageFix"/>
<feColorMatrix in="SourceAlpha" type="matrix" values="0 0 0 0 0 0 0 0 0 0 0 0 0 0 0 0 0 0 127 0" result="hardAlpha"/>
<feOffset dy="8"/>
<feGaussianBlur stdDeviation="8"/>
<feComposite in2="hardAlpha" operator="out"/>
<feColorMatrix type="matrix" values="0 0 0 0 0.113725 0 0 0 0 0.631373 0 0 0 0 0.94902 0 0 0 0.25 0"/>
<feBlend mode="normal" in2="BackgroundImageFix" result="effect1_dropShadow_139_12597"/>
<feBlend mode="normal" in="SourceGraphic" in2="effect1_dropShadow_139_12597" result="shape"/>
</filter>
</defs>
</svg>
