<svg width="30" height="30" viewBox="0 0 30 30" fill="none" xmlns="http://www.w3.org/2000/svg">
<g clip-path="url(#clip0_298_5478)">
<path d="M3.75 25.9585L5.8125 21.2612C4.23458 19.0462 3.52833 16.3378 3.82631 13.6444C4.12428 10.951 5.40598 8.45769 7.43088 6.63242C9.45579 4.80714 12.0847 3.77537 14.8242 3.73073C17.5638 3.68609 20.2256 4.63165 22.3102 6.38996C24.3948 8.14827 25.7589 10.5985 26.1465 13.2807C26.534 15.9629 25.9184 18.6928 24.4151 20.9581C22.9119 23.2234 20.6243 24.8683 17.9817 25.5841C15.3392 26.2999 12.5233 26.0375 10.0625 24.846L3.75 25.9585" stroke="white" stroke-width="2.5" stroke-linecap="round" stroke-linejoin="round"/>
<path d="M11.25 12.3612C11.25 12.5251 11.3158 12.6823 11.4331 12.7982C11.5503 12.9141 11.7092 12.9792 11.875 12.9792C12.0408 12.9792 12.1997 12.9141 12.3169 12.7982C12.4342 12.6823 12.5 12.5251 12.5 12.3612V11.1251C12.5 10.9611 12.4342 10.8039 12.3169 10.688C12.1997 10.5721 12.0408 10.507 11.875 10.507C11.7092 10.507 11.5503 10.5721 11.4331 10.688C11.3158 10.8039 11.25 10.9611 11.25 11.1251V12.3612ZM11.25 12.3612C11.25 14.0004 11.9085 15.5724 13.0806 16.7315C14.2527 17.8906 15.8424 18.5418 17.5 18.5418H18.75C18.9158 18.5418 19.0747 18.4767 19.1919 18.3607C19.3092 18.2448 19.375 18.0876 19.375 17.9237C19.375 17.7598 19.3092 17.6026 19.1919 17.4867C19.0747 17.3708 18.9158 17.3057 18.75 17.3057H17.5C17.3342 17.3057 17.1753 17.3708 17.0581 17.4867C16.9408 17.6026 16.875 17.7598 16.875 17.9237C16.875 18.0876 16.9408 18.2448 17.0581 18.3607C17.1753 18.4767 17.3342 18.5418 17.5 18.5418" stroke="white" stroke-width="2.5" stroke-linecap="round" stroke-linejoin="round"/>
</g>
<defs>
<clipPath id="clip0_298_5478">
<rect width="30" height="29.6668" fill="white"/>
</clipPath>
</defs>
</svg>
