<svg width="183" height="32" viewBox="0 0 183 32" fill="none" xmlns="http://www.w3.org/2000/svg">
<path d="M8.21746 30.7812L0.447461 1.38125H6.20146L11.4935 24.7752L17.7095 1.38125H23.6315L29.6795 24.7752L34.9715 1.38125H40.7675L32.7875 30.7812H26.4035L20.5655 8.98325L14.5595 30.7812H8.21746ZM52.3188 31.2853C50.3028 31.2853 48.4828 30.8232 46.8588 29.8992C45.2628 28.9752 43.9888 27.7012 43.0368 26.0772C42.1128 24.4252 41.6508 22.5212 41.6508 20.3652C41.6508 18.2092 42.1268 16.3192 43.0788 14.6952C44.0308 13.0432 45.3048 11.7552 46.9008 10.8312C48.5248 9.90725 50.3448 9.44525 52.3608 9.44525C54.3488 9.44525 56.1408 9.90725 57.7368 10.8312C59.3608 11.7552 60.6348 13.0432 61.5588 14.6952C62.5108 16.3192 62.9868 18.2092 62.9868 20.3652C62.9868 22.5212 62.5108 24.4252 61.5588 26.0772C60.6348 27.7012 59.3608 28.9752 57.7368 29.8992C56.1128 30.8232 54.3068 31.2853 52.3188 31.2853ZM52.3188 26.6232C53.7188 26.6232 54.9368 26.1052 55.9728 25.0692C57.0088 24.0052 57.5268 22.4372 57.5268 20.3652C57.5268 18.2932 57.0088 16.7392 55.9728 15.7032C54.9368 14.6392 53.7328 14.1072 52.3608 14.1072C50.9328 14.1072 49.7008 14.6392 48.6648 15.7032C47.6568 16.7392 47.1528 18.2932 47.1528 20.3652C47.1528 22.4372 47.6568 24.0052 48.6648 25.0692C49.7008 26.1052 50.9188 26.6232 52.3188 26.6232ZM67.7935 30.7812V9.94925H72.5815L73.0855 13.8552C73.8415 12.5112 74.8635 11.4472 76.1515 10.6632C77.4675 9.85125 79.0075 9.44525 80.7715 9.44525V15.1152H79.2595C78.0835 15.1152 77.0335 15.2972 76.1095 15.6612C75.1855 16.0252 74.4575 16.6552 73.9255 17.5512C73.4215 18.4472 73.1695 19.6932 73.1695 21.2892V30.7812H67.7935ZM94.1987 31.2853C92.0987 31.2853 90.2367 30.8372 88.6127 29.9412C86.9887 29.0452 85.7147 27.7852 84.7907 26.1612C83.8667 24.5372 83.4047 22.6612 83.4047 20.5332C83.4047 18.3772 83.8527 16.4592 84.7487 14.7792C85.6727 13.0992 86.9327 11.7972 88.5287 10.8732C90.1527 9.92125 92.0567 9.44525 94.2407 9.44525C96.2847 9.44525 98.0907 9.89325 99.6587 10.7892C101.227 11.6852 102.445 12.9172 103.313 14.4852C104.209 16.0252 104.657 17.7472 104.657 19.6512C104.657 19.9592 104.643 20.2812 104.615 20.6172C104.615 20.9532 104.601 21.3032 104.573 21.6672H88.7387C88.8507 23.2912 89.4107 24.5652 90.4187 25.4892C91.4547 26.4132 92.7007 26.8752 94.1567 26.8752C95.2487 26.8752 96.1587 26.6372 96.8867 26.1612C97.6427 25.6572 98.2027 25.0132 98.5667 24.2292H104.027C103.635 25.5452 102.977 26.7492 102.053 27.8412C101.157 28.9052 100.037 29.7452 98.6927 30.3612C97.3767 30.9772 95.8787 31.2853 94.1987 31.2853ZM94.2407 13.8132C92.9247 13.8132 91.7627 14.1912 90.7547 14.9472C89.7467 15.6752 89.1027 16.7952 88.8227 18.3072H99.1967C99.1127 16.9352 98.6087 15.8432 97.6847 15.0312C96.7607 14.2192 95.6127 13.8132 94.2407 13.8132ZM121.526 31.2853C119.958 31.2853 118.586 30.9912 117.41 30.4032C116.234 29.8152 115.282 28.9892 114.554 27.9252L113.966 30.7812H109.178V0.541249H114.554V12.9312C115.226 12.0072 116.108 11.1952 117.2 10.4952C118.32 9.79525 119.762 9.44525 121.526 9.44525C123.486 9.44525 125.236 9.92125 126.776 10.8732C128.316 11.8252 129.534 13.1272 130.43 14.7792C131.326 16.4312 131.774 18.3072 131.774 20.4072C131.774 22.5072 131.326 24.3832 130.43 26.0352C129.534 27.6592 128.316 28.9472 126.776 29.8992C125.236 30.8232 123.486 31.2853 121.526 31.2853ZM120.392 26.5812C122.1 26.5812 123.514 26.0072 124.634 24.8592C125.754 23.7112 126.314 22.2272 126.314 20.4072C126.314 18.5872 125.754 17.0892 124.634 15.9132C123.514 14.7372 122.1 14.1492 120.392 14.1492C118.656 14.1492 117.228 14.7372 116.108 15.9132C115.016 17.0612 114.47 18.5452 114.47 20.3652C114.47 22.1852 115.016 23.6832 116.108 24.8592C117.228 26.0072 118.656 26.5812 120.392 26.5812ZM146.699 31.2853C144.599 31.2853 142.737 30.8372 141.113 29.9412C139.489 29.0452 138.215 27.7852 137.291 26.1612C136.367 24.5372 135.905 22.6612 135.905 20.5332C135.905 18.3772 136.353 16.4592 137.249 14.7792C138.173 13.0992 139.433 11.7972 141.029 10.8732C142.653 9.92125 144.557 9.44525 146.741 9.44525C148.785 9.44525 150.591 9.89325 152.159 10.7892C153.727 11.6852 154.945 12.9172 155.813 14.4852C156.709 16.0252 157.157 17.7472 157.157 19.6512C157.157 19.9592 157.143 20.2812 157.115 20.6172C157.115 20.9532 157.101 21.3032 157.073 21.6672H141.239C141.351 23.2912 141.911 24.5652 142.919 25.4892C143.955 26.4132 145.201 26.8752 146.657 26.8752C147.749 26.8752 148.659 26.6372 149.387 26.1612C150.143 25.6572 150.703 25.0132 151.067 24.2292H156.527C156.135 25.5452 155.477 26.7492 154.553 27.8412C153.657 28.9052 152.537 29.7452 151.193 30.3612C149.877 30.9772 148.379 31.2853 146.699 31.2853ZM146.741 13.8132C145.425 13.8132 144.263 14.1912 143.255 14.9472C142.247 15.6752 141.603 16.7952 141.323 18.3072H151.697C151.613 16.9352 151.109 15.8432 150.185 15.0312C149.261 14.2192 148.113 13.8132 146.741 13.8132ZM161.678 30.7812V9.94925H166.466L166.97 13.8552C167.726 12.5112 168.748 11.4472 170.036 10.6632C171.352 9.85125 172.892 9.44525 174.656 9.44525V15.1152H173.144C171.968 15.1152 170.918 15.2972 169.994 15.6612C169.07 16.0252 168.342 16.6552 167.81 17.5512C167.306 18.4472 167.054 19.6932 167.054 21.2892V30.7812H161.678ZM178.959 31.0753C177.979 31.0753 177.167 30.7672 176.523 30.1512C175.907 29.5352 175.599 28.7932 175.599 27.9252C175.599 27.0292 175.907 26.2732 176.523 25.6572C177.167 25.0412 177.979 24.7332 178.959 24.7332C179.939 24.7332 180.737 25.0412 181.353 25.6572C181.997 26.2732 182.319 27.0292 182.319 27.9252C182.319 28.7932 181.997 29.5352 181.353 30.1512C180.737 30.7672 179.939 31.0753 178.959 31.0753Z" fill="black"/>
</svg>
